<svg xmlns="http://www.w3.org/2000/svg" xmlns:xlink="http://www.w3.org/1999/xlink" viewBox="0 0 264.08 80.49"><defs><style>.cls-1{fill:#fff;}.cls-2{fill:#414098;}.cls-3{fill:#63c19d;}.cls-4{fill:url(#linear-gradient);}.cls-5{fill:#00a273;}.cls-6{fill:#ebe856;}</style><linearGradient id="linear-gradient" x1="1366.55" y1="-1485.69" x2="1366.55" y2="-1433.41" gradientTransform="translate(1409.58 -1427.11) rotate(180)" gradientUnits="userSpaceOnUse"><stop offset="0" stop-color="#ebe856"/><stop offset="0.15" stop-color="#bada5c"/><stop offset="0.38" stop-color="#79c664"/><stop offset="0.59" stop-color="#45b66b"/><stop offset="0.77" stop-color="#1fab6f"/><stop offset="0.91" stop-color="#08a472"/><stop offset="1" stop-color="#00a273"/></linearGradient></defs><title>logo_reverse_small1</title><g id="Layer_2" data-name="Layer 2"><g id="Layer_1-2" data-name="Layer 1"><path class="cls-1" d="M51.29,0H34.76a34.76,34.76,0,0,0,0,69.52H51.29A34.76,34.76,0,0,0,51.29,0Z"/><path class="cls-2" d="M1.71,6.08v.65A18.89,18.89,0,0,0,20.6,25.63h0V12.12l-18.89-6"/><path class="cls-2" d="M84.36,6.08v.65a18.9,18.9,0,0,1-18.89,18.9h0V12.12l18.89-6"/><path class="cls-3" d="M50.82,63.57H35.25A28.74,28.74,0,0,1,6.51,34.83h0A28.74,28.74,0,0,1,35.25,6.09H50.82A28.73,28.73,0,0,1,79.55,34.83h0A28.73,28.73,0,0,1,50.82,63.57Z"/><path class="cls-3" d="M50.82,63.57H35.25A28.74,28.74,0,0,1,6.51,34.83h0A28.74,28.74,0,0,1,35.25,6.09H50.82A28.73,28.73,0,0,1,79.55,34.83h0A28.73,28.73,0,0,1,50.82,63.57Z"/><path class="cls-4" d="M35.25,6.09H50.82A28.73,28.73,0,0,1,79.55,34.83h0A28.73,28.73,0,0,1,50.82,63.57H35.25A28.74,28.74,0,0,1,6.51,34.83h0A28.74,28.74,0,0,1,35.25,6.09Z"/><path class="cls-5" d="M51,10.92H35A20.52,20.52,0,0,0,14.51,31.44h0A20.52,20.52,0,0,0,35,52H51A20.52,20.52,0,0,0,71.56,31.44h0A20.53,20.53,0,0,0,51,10.92Z"/><path class="cls-2" d="M79.56,34.83A28.75,28.75,0,0,1,50.82,63.57H35.25A28.73,28.73,0,0,1,6.52,34.83c0-.69,0-1.37.08-2A28.72,28.72,0,0,0,35.25,59.46H50.82A28.74,28.74,0,0,0,79.48,32.78C79.54,33.46,79.56,34.14,79.56,34.83Z"/><path class="cls-1" d="M57,53H29v20.9a6.55,6.55,0,0,0,6.55,6.55h14.9a6.55,6.55,0,0,0,6.56-6.56Z"/><path class="cls-3" d="M72.31,18.14H66.45a6.31,6.31,0,0,1-.21,12.62H61.05a4,4,0,0,0-4,4V53a9.13,9.13,0,0,1-2.66,6.42l-5.74-.6L43,66.79l-5.48-8-5.86.7A9.13,9.13,0,0,1,29,53V34.76a4,4,0,0,0-4-4H19.86a6.31,6.31,0,0,1-.21-12.62H13.78a12.06,12.06,0,0,1-12.07-12H84.35A12,12,0,0,1,72.31,18.14Z"/><path class="cls-2" d="M53.22,6.09a18.72,18.72,0,0,1-10.16,3,18.74,18.74,0,0,1-10.19-3Z"/><path class="cls-2" d="M53.24,24.38a18.76,18.76,0,0,1-20.35,0Z"/><path class="cls-2" d="M53.75,53.13c-2.73,0-7.07,4.65-10.7,4.65s-8-4.65-10.7-4.65h-3.3a8.89,8.89,0,0,0,2.6,6.27l11.4,11.38L54.45,59.4a8.89,8.89,0,0,0,2.6-6.27Z"/><path class="cls-2" d="M43,70.79,49,76.38h0a10.94,10.94,0,0,0-11.86,0h0Z"/><path class="cls-6" d="M53.74,53.13H50.87a7.78,7.78,0,0,0-6.18,3c-.12.15-.23.31-.34.47a1.56,1.56,0,0,1-2.62,0c-.11-.16-.22-.32-.34-.47a7.81,7.81,0,0,0-6.18-3H32.33a6.78,6.78,0,0,0,.52,2.6A7.08,7.08,0,0,0,34.36,58a3,3,0,0,0,2.11.84h.07a1.71,1.71,0,0,1,1.7,1.89,2.48,2.48,0,0,0,.8,1.94h0a5.65,5.65,0,0,0,8,0,2.92,2.92,0,0,0,.77-2.11,1.67,1.67,0,0,1,.5-1.22,1.73,1.73,0,0,1,1.21-.5h.12a3,3,0,0,0,2.11-.87,6.8,6.8,0,0,0,2-4.81Z"/><path class="cls-2" d="M29,38.82V34.76a4,4,0,0,0-4-4H21A8.06,8.06,0,0,0,29,38.82Z"/><path class="cls-2" d="M57,38.82V34.76a4,4,0,0,1,4-4H65.1A8.06,8.06,0,0,1,57,38.82Z"/><path class="cls-2" d="M56.32,14.78a24.45,24.45,0,0,1-13.24,3.91,24.39,24.39,0,0,1-13.26-3.91Z"/><path class="cls-2" d="M22.88,48l.06.06A19.8,19.8,0,0,1,20.52,46a20.46,20.46,0,0,1-6-14.51,19.59,19.59,0,0,1,.27-3.27,6.19,6.19,0,0,0,2.36,2,20,20,0,0,0-.27,3.3A20.46,20.46,0,0,0,22.88,48Z"/><path class="cls-2" d="M63.19,48l-.06.06A19.8,19.8,0,0,0,65.55,46a20.46,20.46,0,0,0,6-14.51,19.59,19.59,0,0,0-.27-3.27,6.19,6.19,0,0,1-2.36,2,20,20,0,0,1,.27,3.3A20.46,20.46,0,0,1,63.19,48Z"/><path class="cls-1" d="M29,34.76a4,4,0,0,0-4-4H19.86a6.31,6.31,0,0,1-.21-12.62H23a6,6,0,0,1,6,6Z"/><polygon class="cls-1" points="29.04 34.89 29.04 34.77 29.04 34.77 29.04 34.89"/><path class="cls-1" d="M72.55,24.44a6.32,6.32,0,0,1-6.31,6.32H61.06a4,4,0,0,0-4,4V24.13a6,6,0,0,1,6-6h3.41A6.31,6.31,0,0,1,72.55,24.44Z"/><polygon class="cls-1" points="57.06 34.89 57.06 34.77 57.06 34.77 57.06 34.89"/><path class="cls-1" d="M112.8,57.05q-5.79-5.37-6.17-15c0-1.47-.08-3.81-.08-7.05s0-5.58.08-7q.3-9.39,6.21-14.73T129.05,7.9a27.68,27.68,0,0,1,12,2.39,19.47,19.47,0,0,1,7.61,5.9,12.74,12.74,0,0,1,2.73,6.93,1.51,1.51,0,0,1-.46,1.14,1.65,1.65,0,0,1-1.21.45h-7.95a1.83,1.83,0,0,1-1.14-.3,2.59,2.59,0,0,1-.68-1,10.6,10.6,0,0,0-3.71-4.78,11.84,11.84,0,0,0-7.19-2c-3.54,0-6.3.94-8.3,2.84s-3,4.83-3.14,8.82c0,1.46-.08,3.69-.08,6.66s0,5.15.08,6.67q.15,6.14,3.18,9t8.33,2.91a12.53,12.53,0,0,0,8.63-2.87c2.18-1.92,3.26-4.8,3.26-8.64V39.78h-9.24A1.81,1.81,0,0,1,130,38V33.8A1.81,1.81,0,0,1,131.77,32H150a1.85,1.85,0,0,1,1.36.53,1.79,1.79,0,0,1,.53,1.29v8A20.78,20.78,0,0,1,149,52.77a18.38,18.38,0,0,1-7.95,7.16,27.26,27.26,0,0,1-12,2.5Q118.6,62.43,112.8,57.05Z"/><path class="cls-1" d="M176.91,61.14a1.76,1.76,0,0,1-.53-1.29V18.12h-14a1.74,1.74,0,0,1-1.29-.53,1.84,1.84,0,0,1-.53-1.36V10.55A1.91,1.91,0,0,1,161,9.19a1.7,1.7,0,0,1,1.33-.53h38.7A1.82,1.82,0,0,1,203,10.55v5.68a1.82,1.82,0,0,1-1.89,1.89H187.14V59.85a1.81,1.81,0,0,1-.5,1.29,1.7,1.7,0,0,1-1.32.53H178.2A1.72,1.72,0,0,1,176.91,61.14Z"/><path class="cls-1" d="M214.93,61.14a1.72,1.72,0,0,1-.53-1.29V10.55a1.91,1.91,0,0,1,.49-1.36,1.7,1.7,0,0,1,1.33-.53h6.13a2.53,2.53,0,0,1,2.27,1.44l14.62,27.11L253.86,10.1a2.53,2.53,0,0,1,2.27-1.44h6.06a1.82,1.82,0,0,1,1.89,1.89v49.3a1.7,1.7,0,0,1-.53,1.33,1.91,1.91,0,0,1-1.36.49h-6.51a1.72,1.72,0,0,1-1.29-.53,1.76,1.76,0,0,1-.53-1.29V27.29l-10.53,20a2.68,2.68,0,0,1-2.5,1.67h-3.18a2.92,2.92,0,0,1-2.57-1.67l-10.53-20V59.85a1.85,1.85,0,0,1-.49,1.29,1.7,1.7,0,0,1-1.33.53h-6.51A1.72,1.72,0,0,1,214.93,61.14Z"/></g></g></svg>